<svg xmlns="http://www.w3.org/2000/svg" xmlns:xlink="http://www.w3.org/1999/xlink">

	<path id="github" d="M128.00106,0 C57.3172926,0 0,57.3066942 0,128.00106 C0,184.555281 36.6761997,232.535542 87.534937,249.460899 C93.9320223,250.645779 96.280588,246.684165 96.280588,243.303333 C96.280588,240.251045 96.1618878,230.167899 96.106777,219.472176 C60.4967585,227.215235 52.9826207,204.369712 52.9826207,204.369712 C47.1599584,189.574598 38.770408,185.640538 38.770408,185.640538 C27.1568785,177.696113 39.6458206,177.859325 39.6458206,177.859325 C52.4993419,178.762293 59.267365,191.04987 59.267365,191.04987 C70.6837675,210.618423 89.2115753,204.961093 96.5158685,201.690482 C97.6647155,193.417512 100.981959,187.77078 104.642583,184.574357 C76.211799,181.33766 46.324819,170.362144 46.324819,121.315702 C46.324819,107.340889 51.3250588,95.9223682 59.5132437,86.9583937 C58.1842268,83.7344152 53.8029229,70.715562 60.7532354,53.0843636 C60.7532354,53.0843636 71.5019501,49.6441813 95.9626412,66.2049595 C106.172967,63.368876 117.123047,61.9465949 128.00106,61.8978432 C138.879073,61.9465949 149.837632,63.368876 160.067033,66.2049595 C184.49805,49.6441813 195.231926,53.0843636 195.231926,53.0843636 C202.199197,70.715562 197.815773,83.7344152 196.486756,86.9583937 C204.694018,95.9223682 209.660343,107.340889 209.660343,121.315702 C209.660343,170.478725 179.716133,181.303747 151.213281,184.472614 C155.80443,188.444828 159.895342,196.234518 159.895342,208.176593 C159.895342,225.303317 159.746968,239.087361 159.746968,243.303333 C159.746968,246.709601 162.05102,250.70089 168.53925,249.443941 C219.370432,232.499507 256,184.536204 256,128.00106 C256,57.3066942 198.691187,0 128.00106,0 Z M47.9405593,182.340212 C47.6586465,182.976105 46.6581745,183.166873 45.7467277,182.730227 C44.8183235,182.312656 44.2968914,181.445722 44.5978808,180.80771 C44.8734344,180.152739 45.876026,179.97045 46.8023103,180.409216 C47.7328342,180.826786 48.2627451,181.702199 47.9405593,182.340212 Z M54.2367892,187.958254 C53.6263318,188.524199 52.4329723,188.261363 51.6232682,187.366874 C50.7860088,186.474504 50.6291553,185.281144 51.2480912,184.70672 C51.8776254,184.140775 53.0349512,184.405731 53.8743302,185.298101 C54.7115892,186.201069 54.8748019,187.38595 54.2367892,187.958254 Z M58.5562413,195.146347 C57.7719732,195.691096 56.4895886,195.180261 55.6968417,194.042013 C54.9125733,192.903764 54.9125733,191.538713 55.713799,190.991845 C56.5086651,190.444977 57.7719732,190.936735 58.5753181,192.066505 C59.3574669,193.22383 59.3574669,194.58888 58.5562413,195.146347 Z M65.8613592,203.471174 C65.1597571,204.244846 63.6654083,204.03712 62.5716717,202.981538 C61.4524999,201.94927 61.1409122,200.484596 61.8446341,199.710926 C62.5547146,198.935137 64.0575422,199.15346 65.1597571,200.200564 C66.2704506,201.230712 66.6095936,202.705984 65.8613592,203.471174 Z M75.3025151,206.281542 C74.9930474,207.284134 73.553809,207.739857 72.1039724,207.313809 C70.6562556,206.875043 69.7087748,205.700761 70.0012857,204.687571 C70.302275,203.678621 71.7478721,203.20382 73.2083069,203.659543 C74.6539041,204.09619 75.6035048,205.261994 75.3025151,206.281542 Z M86.046947,207.473627 C86.0829806,208.529209 84.8535871,209.404622 83.3316829,209.4237 C81.8013,209.457614 80.563428,208.603398 80.5464708,207.564772 C80.5464708,206.498591 81.7483088,205.631657 83.2786917,205.606221 C84.8005962,205.576546 86.046947,206.424403 86.046947,207.473627 Z M96.6021471,207.069023 C96.7844366,208.099171 95.7267341,209.156872 94.215428,209.438785 C92.7295577,209.710099 91.3539086,209.074206 91.1652603,208.052538 C90.9808515,206.996955 92.0576306,205.939253 93.5413813,205.66582 C95.054807,205.402984 96.4092596,206.021919 96.6021471,207.069023 Z" fill="#888888"></path>

	<path id="twitter" d="M256,25.4500259 C246.580841,29.6272672 236.458451,32.4504868 225.834156,33.7202333 C236.678503,27.2198053 245.00583,16.9269929 248.927437,4.66307685 C238.779765,10.6812633 227.539325,15.0523376 215.57599,17.408298 C205.994835,7.2006971 192.34506,0.822 177.239197,0.822 C148.232605,0.822 124.716076,24.3375931 124.716076,53.3423116 C124.716076,57.4586875 125.181462,61.4673784 126.076652,65.3112644 C82.4258385,63.1210453 43.7257252,42.211429 17.821398,10.4359288 C13.3005011,18.1929938 10.710443,27.2151234 10.710443,36.8402889 C10.710443,55.061526 19.9835254,71.1374907 34.0762135,80.5557137 C25.4660961,80.2832239 17.3681846,77.9207088 10.2862577,73.9869292 C10.2825122,74.2060448 10.2825122,74.4260967 10.2825122,74.647085 C10.2825122,100.094453 28.3867003,121.322443 52.413563,126.14673 C48.0059695,127.347184 43.3661509,127.988612 38.5755734,127.988612 C35.1914554,127.988612 31.9009766,127.659938 28.694773,127.046602 C35.3777973,147.913145 54.7742053,163.097665 77.7569918,163.52185 C59.7820257,177.607983 37.1354036,186.004604 12.5289147,186.004604 C8.28987161,186.004604 4.10888474,185.75646 0,185.271409 C23.2431033,200.173139 50.8507261,208.867532 80.5109185,208.867532 C177.116529,208.867532 229.943977,128.836982 229.943977,59.4326002 C229.943977,57.1552968 229.893412,54.8901664 229.792282,52.6381454 C240.053257,45.2331635 248.958338,35.9825545 256,25.4500259" fill="#888888"></path>

	<g id="stackoverflow">
	  <path d="M63.2771377,73.1751454 L19.8520257,62.642574 L21.9586718,53.9576834 L65.3837838,64.4895959 L63.2771377,73.1751454" fill="#888888"></path>
	  <path d="M66.1883552,62.784906 L26.397982,42.4525097 L30.4643295,34.494435 L70.2547027,54.8268314 L66.1883552,62.784906" fill="#888888"></path>
	  <path d="M72.3171995,52.021704 L38.6668726,22.622888 L44.5459768,15.8930862 L78.1969627,45.2912432 L72.3171995,52.021704" fill="#888888"></path>
	  <path d="M81.574713,42.5605766 L56.4814414,5.58785071 L63.8761184,0.569328185 L88.96939,37.5420541 L81.574713,42.5605766" fill="#888888"></path>
	  <path d="M62.5819511,84.0378481 L17.9641493,81.6017297 L18.4511094,72.6776422 L63.0689112,75.1144196 L62.5819511,84.0378481" fill="#888888"></path>
	  <path d="M71.8328752,105.058842 L71.8328752,68.0353771 L80.7615753,68.0353771 L80.7681647,113.997426 L0,113.997426 L0.00197683398,67.9964994 L8.9385843,67.9964994 L8.9385843,105.058842 L71.8328752,105.058842" fill="#888888"></path>
	  <path d="M17.8402677,87.2205508 L62.8277375,87.2205508 L62.8277375,96.1571583 L17.8402677,96.1571583 L17.8402677,87.2205508 Z" fill="#888888"></path>
	</g>

	<path id="angellist" d="M214.899083,157.357798 C230.165138,159.706422 240.733945,166.752294 246.605505,176.146789 C252.477064,185.541284 256,201.981651 256,223.119266 C256,265.394495 243.082569,300.623853 217.247706,327.633028 C191.412844,354.642202 158.53211,368.733945 118.605505,368.733945 C103.33945,368.733945 88.0733945,366.385321 72.8073394,360.513761 C57.5412844,354.642202 45.7981651,346.422018 35.2293578,337.027523 C23.4862385,326.458716 14.0917431,313.541284 8.22018349,301.798165 C3.52293578,288.880734 0,275.963303 0,263.045872 C0,248.954128 3.52293578,237.211009 9.39449541,228.990826 C15.266055,220.770642 25.8348624,216.073394 38.7522936,212.550459 C36.4036697,206.678899 34.0550459,201.981651 32.8807339,197.284404 C31.706422,193.761468 30.5321101,190.238532 30.5321101,187.889908 C30.5321101,180.844037 34.0550459,172.623853 42.2752294,164.40367 C50.4954128,156.183486 57.5412844,152.66055 64.587156,152.66055 C68.1100917,152.66055 70.4587156,152.66055 73.9816514,153.834862 C77.5045872,155.009174 81.0275229,156.183486 85.7247706,159.706422 C75.1559633,124.477064 64.587156,95.1192661 58.7155963,75.1559633 C52.8440367,55.1926606 50.4954128,42.2752294 50.4954128,34.0550459 C50.4954128,23.4862385 52.8440367,15.266055 58.7155963,9.39449541 C63.412844,3.52293578 71.6330275,0 81.0275229,0 C96.293578,0 116.256881,35.2293578 140.917431,106.862385 C145.614679,118.605505 147.963303,128 150.311927,135.045872 C152.66055,130.348624 155.009174,122.12844 158.53211,112.733945 C183.192661,42.2752294 204.330275,7.04587156 220.770642,7.04587156 C228.990826,7.04587156 236.036697,9.39449541 241.908257,15.266055 C246.605505,21.1376147 250.12844,29.3577982 250.12844,38.7522936 C250.12844,45.7981651 247.779817,59.8899083 241.908257,79.853211 C234.862385,99.8165138 226.642202,125.651376 214.899083,157.357798 L214.899083,157.357798 Z M34.0550459,260.697248 C36.4036697,263.045872 39.9266055,267.743119 43.4495413,273.614679 C54.0183486,288.880734 64.587156,297.100917 73.9816514,297.100917 C77.5045872,297.100917 79.853211,295.926606 82.2018349,293.577982 C84.5504587,291.229358 85.7247706,288.880734 85.7247706,287.706422 C85.7247706,285.357798 84.5504587,280.66055 81.0275229,274.788991 C77.5045872,268.917431 72.8073394,261.87156 66.9357798,254.825688 C59.8899083,246.605505 54.0183486,239.559633 50.4954128,236.036697 C45.7981651,232.513761 42.2752294,230.165138 39.9266055,230.165138 C34.0550459,230.165138 28.1834862,233.688073 23.4862385,239.559633 C18.7889908,245.431193 16.440367,253.651376 16.440367,261.87156 C16.440367,268.917431 17.6146789,275.963303 21.1376147,285.357798 C24.6605505,293.577982 29.3577982,302.972477 36.4036697,311.192661 C46.9724771,322.93578 58.7155963,333.504587 73.9816514,340.550459 C89.2477064,347.59633 104.513761,351.119266 123.302752,351.119266 C156.183486,351.119266 183.192661,339.376147 205.504587,314.715596 C227.816514,290.055046 238.385321,259.522936 238.385321,221.944954 C238.385321,210.201835 237.211009,201.981651 236.036697,194.93578 C234.862385,187.889908 231.33945,183.192661 227.816514,180.844037 C220.770642,174.972477 207.853211,170.275229 187.889908,165.577982 C167.926606,160.880734 146.788991,158.53211 125.651376,158.53211 C119.779817,158.53211 115.082569,159.706422 112.733945,162.055046 C110.385321,164.40367 109.211009,167.926606 109.211009,172.623853 C109.211009,184.366972 115.082569,192.587156 128,197.284404 C140.917431,201.981651 162.055046,205.504587 190.238532,205.504587 L200.807339,205.504587 C203.155963,205.504587 205.504587,206.678899 206.678899,207.853211 C207.853211,210.201835 209.027523,212.550459 209.027523,216.073394 C206.678899,218.422018 200.807339,221.944954 191.412844,225.46789 C182.018349,228.990826 176.146789,232.513761 171.449541,236.036697 C160.880734,243.082569 152.66055,252.477064 146.788991,263.045872 C140.917431,273.614679 137.394495,283.009174 137.394495,292.40367 C137.394495,298.275229 138.568807,304.146789 140.917431,312.366972 C143.266055,320.587156 144.440367,325.284404 144.440367,326.458716 L144.440367,328.807339 L144.440367,331.155963 C137.394495,331.155963 131.522936,326.458716 126.825688,318.238532 C122.12844,310.018349 120.954128,299.449541 120.954128,285.357798 L120.954128,283.009174 C119.779817,284.183486 118.605505,285.357798 117.431193,285.357798 C116.256881,285.357798 115.082569,286.53211 112.733945,286.53211 L108.036697,286.53211 C106.862385,286.53211 105.688073,285.357798 103.33945,285.357798 C103.33945,287.706422 104.513761,288.880734 104.513761,291.229358 L104.513761,295.926606 C104.513761,301.798165 102.165138,307.669725 97.4678899,312.366972 C92.7706422,317.06422 86.8990826,319.412844 79.853211,319.412844 C69.2844037,319.412844 58.7155963,314.715596 46.9724771,304.146789 C36.4036697,293.577982 30.5321101,284.183486 30.5321101,273.614679 C30.5321101,271.266055 30.5321101,270.091743 31.706422,268.917431 C31.706422,263.045872 32.8807339,261.87156 34.0550459,260.697248 L34.0550459,260.697248 Z M110.385321,266.568807 C112.733945,266.568807 116.256881,265.394495 118.605505,263.045872 C120.954128,260.697248 122.12844,257.174312 122.12844,254.825688 C122.12844,251.302752 119.779817,244.256881 115.082569,232.513761 C110.385321,220.770642 104.513761,209.027523 97.4678899,198.458716 C92.7706422,190.238532 86.8990826,183.192661 82.2018349,179.669725 C77.5045872,174.972477 72.8073394,173.798165 68.1100917,173.798165 C64.587156,173.798165 61.0642202,176.146789 56.3669725,180.844037 C51.6697248,185.541284 50.4954128,189.06422 50.4954128,193.761468 C50.4954128,197.284404 52.8440367,204.330275 56.3669725,212.550459 C61.0642202,220.770642 65.7614679,228.990826 72.8073394,238.385321 C79.853211,247.779817 86.8990826,256 93.9449541,261.87156 C100.990826,264.220183 105.688073,266.568807 110.385321,266.568807 L110.385321,266.568807 Z M135.045872,144.440367 L106.862385,65.7614679 C99.8165138,45.7981651 95.1192661,31.706422 90.4220183,25.8348624 C86.8990826,19.9633028 83.3761468,16.440367 78.6788991,16.440367 C75.1559633,16.440367 72.8073394,17.6146789 70.4587156,19.9633028 C66.9357798,23.4862385 65.7614679,27.0091743 65.7614679,31.706422 C65.7614679,39.9266055 69.2844037,52.8440367 75.1559633,71.6330275 C81.0275229,90.4220183 90.4220183,116.256881 102.165138,146.788991 C103.33945,144.440367 104.513761,143.266055 106.862385,143.266055 C109.211009,142.091743 111.559633,142.091743 113.908257,142.091743 L119.779817,142.091743 C123.302752,143.266055 128,143.266055 135.045872,144.440367 L135.045872,144.440367 Z M163.229358,220.770642 C156.183486,220.770642 149.137615,219.59633 142.091743,218.422018 C135.045872,217.247706 129.174312,216.073394 123.302752,213.724771 C125.651376,219.59633 128,224.293578 130.348624,230.165138 C132.697248,236.036697 133.87156,240.733945 135.045872,246.605505 C138.568807,241.908257 143.266055,237.211009 147.963303,232.513761 C153.834862,227.816514 158.53211,224.293578 163.229358,220.770642 L163.229358,220.770642 Z M197.284404,152.66055 C209.027523,122.12844 217.247706,96.293578 224.293578,76.3302752 C230.165138,56.3669725 233.688073,44.6238532 233.688073,39.9266055 C233.688073,35.2293578 232.513761,31.706422 230.165138,28.1834862 C227.816514,25.8348624 225.46789,24.6605505 221.944954,24.6605505 C217.247706,24.6605505 212.550459,28.1834862 207.853211,36.4036697 C203.155963,44.6238532 197.284404,56.3669725 191.412844,73.9816514 L165.577982,146.788991 L197.284404,152.66055 L197.284404,152.66055 Z" fill="#888888"></path>

	<path id="instagram" d="M127.999746,23.06353 C162.177385,23.06353 166.225393,23.1936027 179.722476,23.8094161 C192.20235,24.3789926 198.979853,26.4642218 203.490736,28.2166477 C209.464938,30.5386501 213.729395,33.3128586 218.208268,37.7917319 C222.687141,42.2706052 225.46135,46.5350617 227.782844,52.5092638 C229.535778,57.0201472 231.621007,63.7976504 232.190584,76.277016 C232.806397,89.7746075 232.93647,93.8226147 232.93647,128.000254 C232.93647,162.177893 232.806397,166.225901 232.190584,179.722984 C231.621007,192.202858 229.535778,198.980361 227.782844,203.491244 C225.46135,209.465446 222.687141,213.729903 218.208268,218.208776 C213.729395,222.687649 209.464938,225.461858 203.490736,227.783352 C198.979853,229.536286 192.20235,231.621516 179.722476,232.191092 C166.227425,232.806905 162.179418,232.936978 127.999746,232.936978 C93.8200742,232.936978 89.772067,232.806905 76.277016,232.191092 C63.7971424,231.621516 57.0196391,229.536286 52.5092638,227.783352 C46.5345536,225.461858 42.2700971,222.687649 37.7912238,218.208776 C33.3123505,213.729903 30.538142,209.465446 28.2166477,203.491244 C26.4637138,198.980361 24.3784845,192.202858 23.808908,179.723492 C23.1930946,166.225901 23.0630219,162.177893 23.0630219,128.000254 C23.0630219,93.8226147 23.1930946,89.7746075 23.808908,76.2775241 C24.3784845,63.7976504 26.4637138,57.0201472 28.2166477,52.5092638 C30.538142,46.5350617 33.3123505,42.2706052 37.7912238,37.7917319 C42.2700971,33.3128586 46.5345536,30.5386501 52.5092638,28.2166477 C57.0196391,26.4642218 63.7971424,24.3789926 76.2765079,23.8094161 C89.7740994,23.1936027 93.8221066,23.06353 127.999746,23.06353 M127.999746,0 C93.2367791,0 88.8783247,0.147348072 75.2257637,0.770274749 C61.601148,1.39218523 52.2968794,3.55566141 44.1546281,6.72008828 C35.7374966,9.99121548 28.5992446,14.3679613 21.4833489,21.483857 C14.3674532,28.5997527 9.99070739,35.7380046 6.71958019,44.1551362 C3.55515331,52.2973875 1.39167714,61.6016561 0.769766653,75.2262718 C0.146839975,88.8783247 0,93.2372872 0,128.000254 C0,162.763221 0.146839975,167.122183 0.769766653,180.774236 C1.39167714,194.398852 3.55515331,203.703121 6.71958019,211.845372 C9.99070739,220.261995 14.3674532,227.400755 21.4833489,234.516651 C28.5992446,241.632547 35.7374966,246.009293 44.1546281,249.28042 C52.2968794,252.444847 61.601148,254.608323 75.2257637,255.230233 C88.8783247,255.85316 93.2367791,256 127.999746,256 C162.762713,256 167.121675,255.85316 180.773728,255.230233 C194.398344,254.608323 203.702613,252.444847 211.844864,249.28042 C220.261995,246.009293 227.400247,241.632547 234.516143,234.516651 C241.632039,227.400755 246.008785,220.262503 249.279912,211.845372 C252.444339,203.703121 254.607815,194.398852 255.229725,180.774236 C255.852652,167.122183 256,162.763221 256,128.000254 C256,93.2372872 255.852652,88.8783247 255.229725,75.2262718 C254.607815,61.6016561 252.444339,52.2973875 249.279912,44.1551362 C246.008785,35.7380046 241.632039,28.5997527 234.516143,21.483857 C227.400247,14.3679613 220.261995,9.99121548 211.844864,6.72008828 C203.702613,3.55566141 194.398344,1.39218523 180.773728,0.770274749 C167.121675,0.147348072 162.762713,0 127.999746,0 Z M127.999746,62.2703115 C91.698262,62.2703115 62.2698034,91.69877 62.2698034,128.000254 C62.2698034,164.301738 91.698262,193.730197 127.999746,193.730197 C164.30123,193.730197 193.729689,164.301738 193.729689,128.000254 C193.729689,91.69877 164.30123,62.2703115 127.999746,62.2703115 Z M127.999746,170.667175 C104.435741,170.667175 85.3328252,151.564259 85.3328252,128.000254 C85.3328252,104.436249 104.435741,85.3333333 127.999746,85.3333333 C151.563751,85.3333333 170.666667,104.436249 170.666667,128.000254 C170.666667,151.564259 151.563751,170.667175 127.999746,170.667175 Z M211.686338,59.6734287 C211.686338,68.1566129 204.809755,75.0337031 196.326571,75.0337031 C187.843387,75.0337031 180.966297,68.1566129 180.966297,59.6734287 C180.966297,51.1902445 187.843387,44.3136624 196.326571,44.3136624 C204.809755,44.3136624 211.686338,51.1902445 211.686338,59.6734287 Z" fill="#888888"></path>

	<g id="linkedin">
		<path d="M501.763599,0 L391.342566,0 C386.065996,0 381.779234,4.18238313 381.779234,9.33927592 L381.779234,120.224619 C381.779234,125.386011 386.065996,129.574692 391.342566,129.574692 L501.763599,129.574692 C507.049167,129.574692 511.355726,125.386011 511.355726,120.224619 L511.355726,9.33927592 C511.355726,4.18238313 507.049167,0 501.763599,0" fill="#888888"></path>
		<path d="M410.603304,17.8390158 C416.749104,17.8390158 421.741329,22.8321406 421.741329,28.9788401 C421.741329,35.1300387 416.749104,40.1249631 410.603304,40.1249631 C404.444907,40.1249631 399.458981,35.1300387 399.458981,28.9788401 C399.458981,22.8321406 404.444907,17.8390158 410.603304,17.8390158 L410.603304,17.8390158 Z M400.990482,48.5779121 L420.208928,48.5779121 L420.208928,110.414735 L400.990482,110.414735 L400.990482,48.5779121 Z" fill="#FFFFFF"></path>
		<path d="M432.262974,48.5779121 L450.699473,48.5779121 L450.699473,57.026362 L450.955023,57.026362 C453.519522,52.1655114 459.789497,47.0392127 469.138671,47.0392127 C488.60007,47.0392127 492.193069,59.8464112 492.193069,76.4958594 L492.193069,110.414735 L472.98812,110.414735 L472.98812,80.3435079 C472.98812,73.1692091 472.855845,63.9460105 463.00097,63.9460105 C452.999424,63.9460105 451.467923,71.7582847 451.467923,79.8243093 L451.467923,110.414735 L432.262974,110.414735 L432.262974,48.5779121" fill="#FFFFFF"></path>
	</g>

	<g id="facebook">
		<path d="M241.871,256.001 C249.673,256.001 256,249.675 256,241.872 L256,14.129 C256,6.325 249.673,0 241.871,0 L14.129,0 C6.324,0 0,6.325 0,14.129 L0,241.872 C0,249.675 6.324,256.001 14.129,256.001 L241.871,256.001" fill="#888888"></path>
		<path d="M176.635,256.001 L176.635,156.864 L209.912,156.864 L214.894,118.229 L176.635,118.229 L176.635,93.561 C176.635,82.375 179.742,74.752 195.783,74.752 L216.242,74.743 L216.242,40.188 C212.702,39.717 200.558,38.665 186.43,38.665 C156.932,38.665 136.738,56.67 136.738,89.736 L136.738,118.229 L103.376,118.229 L103.376,156.864 L136.738,156.864 L136.738,256.001 L176.635,256.001" fill="#FFFFFF"></path>
	</g>

	<path id="soundcloud" d="M15.835,47.9c-0.083-0.082-0.145-0.268-0.145-0.393c0-0.145-0.083-1.403-0.186-2.807l-0.186-2.561
	l0.207-4.521c0.206-4.604,0.227-4.769,0.578-4.769c0.062,0,0.186,0.041,0.269,0.124c0.124,0.103,0.186,0.681,0.392,4.562
	l0.248,4.459l-0.248,2.911c-0.145,1.61-0.289,2.973-0.351,3.034c-0.145,0.166-0.393,0.145-0.578-0.02V47.9z M17.94,47.839
	c-0.103-0.145-0.186-1.012-0.33-3.097c-0.165-2.478-0.186-3.18-0.103-5.037c0.041-1.178,0.124-3.51,0.186-5.183
	c0.062-1.672,0.124-3.138,0.145-3.303c0.083-0.537,0.702-0.619,0.826-0.103c0.021,0.103,0.145,2.601,0.269,5.532l0.227,5.348
	l-0.227,2.767c-0.124,1.528-0.227,2.808-0.227,2.87c0,0.164-0.269,0.392-0.454,0.392c-0.104,0-0.227-0.083-0.31-0.206V47.839z
	 M20.088,47.88c-0.145-0.145-0.186-0.372-0.227-1.445c-0.042-0.702-0.104-1.755-0.145-2.333c-0.124-1.465-0.104-3.365,0.041-7.887
	c0.083-2.146,0.145-4.314,0.145-4.851c0.021-1.094,0.104-1.424,0.393-1.507c0.351-0.083,0.619,0.165,0.619,0.599
	c0,0.207,0.103,2.89,0.207,5.946l0.207,5.554l-0.207,2.787c-0.104,1.527-0.207,2.828-0.207,2.891c0,0.164-0.269,0.392-0.475,0.392
	c-0.103,0-0.248-0.083-0.351-0.165V47.88z M22.235,47.88c-0.103-0.124-0.165-0.372-0.207-0.764c-0.31-4.707-0.31-5.038-0.165-9.951
	c0.186-6.771,0.227-7.412,0.392-7.577s0.62-0.165,0.764,0c0.083,0.083,0.145,1.28,0.248,3.964c0.248,7.494,0.269,8.691,0.103,11.148
	c-0.186,2.787-0.206,3.034-0.392,3.199c-0.186,0.186-0.516,0.166-0.723-0.041L22.235,47.88z M24.382,47.859
	c-0.103-0.104-0.186-0.33-0.186-0.475s-0.062-1.383-0.145-2.746c-0.145-2.291-0.145-2.932,0-8.485
	c0.165-6.441,0.165-6.338,0.64-6.441c0.413-0.083,0.682,0.268,0.682,0.908c0,0.289,0.041,1.796,0.083,3.324
	c0.041,1.528,0.103,3.86,0.145,5.183c0.021,1.301,0.062,2.436,0.083,2.498c0.021,0.062-0.042,1.362-0.145,2.89
	c-0.103,1.528-0.186,2.87-0.186,2.974c0,0.247-0.33,0.578-0.619,0.578c-0.124,0-0.289-0.083-0.392-0.207H24.382z M26.591,47.88
	c-0.186-0.186-0.207-0.413-0.392-3.716c-0.103-1.92-0.083-3.943,0.103-10.488c0.104-3.509,0.104-3.571,0.661-3.571
	c0.186,0,0.372,0.062,0.475,0.186c0.186,0.186,0.186,0.33,0.268,3.344c0.021,0.949,0.104,3.262,0.145,5.12
	c0.083,3.034,0.083,3.675-0.083,6.173c-0.165,2.684-0.186,2.787-0.392,2.952c-0.269,0.206-0.599,0.206-0.826,0H26.591z
	 M28.779,47.88c-0.124-0.124-0.186-0.351-0.227-0.764c-0.145-1.59-0.248-5.533-0.207-7.866c0.021-1.445,0.083-3.654,0.104-4.955
	c0.103-5.223,0.145-6.048,0.33-6.234c0.227-0.227,0.681-0.227,0.888,0c0.227,0.227,0.248,0.888,0.454,10.963
	c0.062,3.035-0.145,8.361-0.351,8.732c-0.186,0.352-0.723,0.413-1.012,0.124H28.779z M31.03,47.859
	c-0.145-0.104-0.269-0.31-0.289-0.475c-0.021-0.166-0.104-1.508-0.186-2.994c-0.103-2.126-0.124-3.406-0.062-6.008
	c0.042-1.816,0.104-4.83,0.145-6.688c0.062-4.253,0.104-4.666,0.351-4.914c0.269-0.248,0.661-0.227,0.95,0.041
	c0.207,0.207,0.227,0.289,0.248,1.342c0,0.619,0.021,1.238,0.041,1.362s0.042,1.879,0.083,3.901
	c0.042,2.023,0.083,3.696,0.104,3.717c0.103,0.165,0.021,6.152-0.104,8.01c-0.083,1.156-0.145,2.189-0.145,2.271
	c0,0.227-0.413,0.619-0.681,0.619C31.36,48.045,31.153,47.963,31.03,47.859z M33.032,47.818l-0.228-0.228V36.918V26.244l0.248-0.186
	c0.289-0.227,1.383-0.578,2.478-0.805c1.177-0.227,3.097-0.207,4.315,0.041c4.871,1.012,8.34,4.749,9.125,9.827l0.062,0.33
	l0.806-0.227c0.681-0.186,0.929-0.227,1.816-0.186c1.26,0.062,1.321,0.062,2.146,0.371c3.635,1.383,5.285,5.574,3.531,9.043
	c-0.806,1.61-1.962,2.621-3.717,3.262l-0.66,0.248l-9.827,0.021l-9.827,0.021L33.032,47.818z M13.667,47.735
	c-0.041-0.103-0.165-1.466-0.289-3.015c-0.207-2.725-0.207-2.849-0.062-4.582c0.083-0.971,0.166-2.168,0.207-2.643
	c0.062-0.867,0.207-1.281,0.434-1.281c0.289,0,0.372,0.331,0.62,2.953l0.248,2.684l-0.248,2.85c-0.124,1.568-0.269,2.932-0.31,3.055
	c-0.041,0.145-0.145,0.207-0.31,0.207s-0.248-0.062-0.31-0.207L13.667,47.735z M11.603,47.777c-0.021-0.042-0.165-1.363-0.289-2.932
	l-0.248-2.85l0.248-2.952c0.124-1.631,0.289-3.015,0.331-3.076c0.124-0.145,0.31-0.145,0.434,0c0.062,0.062,0.227,1.425,0.372,3.056
	l0.268,2.932l-0.268,2.849c-0.145,1.569-0.289,2.891-0.31,2.952c-0.041,0.124-0.475,0.166-0.537,0.041V47.777z M9.559,47.55
	c-0.041-0.062-0.186-1.321-0.31-2.808l-0.248-2.705l0.227-2.56c0.124-1.403,0.248-2.746,0.268-2.952
	c0.062-0.413,0.248-0.578,0.434-0.393c0.062,0.062,0.227,1.28,0.393,2.911l0.289,2.808l-0.269,2.705
	c-0.145,1.486-0.31,2.787-0.351,2.91c-0.103,0.228-0.31,0.269-0.434,0.104V47.55z M7.474,46.683
	c-0.021-0.083-0.165-1.218-0.289-2.498l-0.248-2.333l0.268-2.374c0.248-2.271,0.289-2.374,0.475-2.415
	c0.227-0.042,0.206-0.145,0.578,2.725l0.268,2.146l-0.268,2.251c-0.145,1.239-0.31,2.333-0.351,2.456
	c-0.104,0.248-0.331,0.27-0.393,0.042H7.474z M5.554,44.948c-0.021-0.083-0.145-0.784-0.248-1.548L5.12,41.996l0.207-1.486
	c0.103-0.826,0.248-1.549,0.289-1.61c0.206-0.248,0.351,0.145,0.557,1.61L6.4,41.996l-0.227,1.486
	c-0.124,0.826-0.289,1.527-0.351,1.569c-0.165,0.103-0.227,0.083-0.289-0.083L5.554,44.948z" fill="#888888"></path>

</svg>